<?xml version="1.0" encoding="utf-8"?>
<!-- Generator: Adobe Illustrator 27.5.0, SVG Export Plug-In . SVG Version: 6.00 Build 0)  -->
<svg version="1.1" xmlns="http://www.w3.org/2000/svg" xmlns:xlink="http://www.w3.org/1999/xlink" x="0px" y="0px"
	 viewBox="0 0 750 500" style="enable-background:new 0 0 750 500;" xml:space="preserve">
<g id="BACKGROUND">
	<rect style="fill:#FFFFFF;" width="750" height="500"/>
</g>
<g id="OBJECTS">
	<path style="fill:#E8D9EB;" d="M93.207,185.216c0,0,36.593-44.476,147.962-42.492c111.37,1.985,244.13,73.089,318.273,60.693
		c107.942-18.046,141.281,42.987,121.762,111.566c-17.772,62.442-171.67,72.199-260.689,41.874
		c-89.019-30.325-197.59-26.259-240.897-9.18c-43.308,17.079-87.225-6.666-105.117-38.304
		C56.61,277.736,59.05,214.729,93.207,185.216z"/>
	<g>
		<g>
			<path style="fill:#D55B5D;" d="M616.897,211.585l18.211,43.155l-18.573,8.524c0,0-25.141-34.357-25.92-39.049
				c-0.779-4.693,4.667-10.587,4.667-10.587L616.897,211.585z"/>
			<path style="fill:#E38680;" d="M615.046,250.474l24.189-55.566l15.548,3.339c0,0-11.296,52.673-14.551,60.199
				C633.958,272.947,608.559,269.162,615.046,250.474z"/>
			<path style="fill:#E38680;" d="M633.892,173.809c2.048,1.058,5.203,3.657,7.757,5.907l5.964-7.502l-0.006-0.005
				c0.312-0.422,0.991-1.273,1.882-2.355l0.002-0.002l0,0c2.985-3.624,8.375-9.862,10.545-11.454
				c2.818-2.068,3.635,0.688,2.33,2.241c-1.007,1.198-6.571,9.554-9.061,13.311l0.137,0.147c2.68-3.318,8.991-10.727,11.384-12.483
				c2.818-2.068,3.635,0.688,2.33,2.241c-1.127,1.342-7.966,11.654-9.809,14.439l0.104,0.112c2.921-3.565,8.57-10.131,10.805-11.77
				c2.818-2.068,3.635,0.688,2.33,2.241c-0.862,1.025-5.06,7.292-7.815,11.434c2.872-2.853,6.283-6.068,7.854-7.038
				c2.727-1.683,3.271,0.896,1.964,2.219c-0.895,0.906-5.488,6.706-8.293,10.271l-8.94,12.132l-2.651,7.914l-15.487-5.187
				l2.018-5.714l-1.813-9.195c-1.633-2.769-3.908-6.52-5.115-8.036C630.29,175.143,629.959,171.777,633.892,173.809z"/>
			<g>
				<path style="fill:#D55B5D;" d="M660.542,184.318c-0.066-0.023-0.128-0.062-0.178-0.117l-10.297-11.138
					c-0.166-0.179-0.155-0.459,0.025-0.625c0.179-0.166,0.459-0.156,0.625,0.025l10.297,11.138c0.166,0.179,0.155,0.459-0.025,0.625
					C660.864,184.341,660.691,184.371,660.542,184.318z"/>
			</g>
			<g>
				<path style="fill:#D55B5D;" d="M645.815,187.972c-0.184-0.064-0.31-0.246-0.295-0.451c0.275-3.695-2.477-6.52-2.505-6.548
					c-0.172-0.174-0.171-0.453,0.003-0.625c0.173-0.172,0.453-0.172,0.625,0.002c0.125,0.126,3.066,3.131,2.76,7.237
					c-0.018,0.244-0.23,0.426-0.474,0.408C645.889,187.993,645.85,187.984,645.815,187.972z"/>
			</g>
			<polygon style="fill:#DD504F;" points="498.77,192.621 502.979,278.784 498.77,315.272 595.798,315.272 592.787,281.954 
				595.798,200.97 			"/>
			<g>
				<path style="fill:#4F1E4A;" d="M581.104,190.117c-14.808-5.257-25.015-13.717-34.621-17.792
					c-9.981,3.045-21.018,10.389-36.294,14.064c-24.241,5.83-28.532-26.367-10.912-36.587c15.511-8.995,13.813-10.724,18.616-27.298
					c0.311-1.075,0.651-2.214,1.025-3.422c0.407-1.325,0.858-2.73,1.357-4.227c0.293-0.875,0.594-1.717,0.907-2.528
					c4.762-12.375,16.914-19.709,29.434-18.612c12.568,0.223,23.884,8.791,27.322,21.596c0.226,0.839,0.437,1.709,0.637,2.609
					c0.34,1.542,0.64,2.986,0.906,4.346c0.246,1.241,0.464,2.409,0.661,3.51c3.039,16.986,1.168,18.528,15.651,29.1
					C612.244,166.887,604.6,198.457,581.104,190.117z"/>
			</g>
			<g>
				<g>
					<path style="fill:#DD504F;" d="M606.422,208.063l-117.864-6.197c0,0,1.976-7.414,4.628-14.827
						c2.652-7.413,7.477-10.32,13.591-11.551c1.725-0.349,4.888-1.088,8.539-1.97c2.069-0.501,4.296-1.047,6.508-1.594
						c7.716-1.907,15.243-3.824,15.243-3.824l12.31-0.335l0.071,0l0.069,0.008l11.013,1.466c0,0,6.544,2.346,13.698,4.874
						c6.712,2.371,13.962,4.904,16.842,5.808c5.951,1.865,10.445,5.262,12.305,12.912
						C605.232,200.483,606.422,208.063,606.422,208.063z"/>
				</g>
			</g>
			<g>
				<g>
					<g>
						<g>
							<g>
								<path style="fill:#A7255B;" d="M502.339,186.589c-0.131-0.007-0.261-0.056-0.367-0.149l-2.993-2.611
									c-0.253-0.221-0.279-0.605-0.059-0.858c0.221-0.253,0.605-0.279,0.858-0.059l2.993,2.611
									c0.253,0.221,0.279,0.605,0.058,0.858C502.702,186.528,502.519,186.598,502.339,186.589z"/>
							</g>
						</g>
					</g>
				</g>
			</g>
			<g>
				<g>
					<g>
						<g>
							<g>
								<path style="fill:#A7255B;" d="M501.645,199.787c-0.131-0.007-0.261-0.056-0.367-0.149l-2.993-2.611
									c-0.253-0.221-0.279-0.605-0.059-0.858c0.221-0.253,0.605-0.279,0.858-0.059l2.993,2.611
									c0.253,0.221,0.279,0.605,0.058,0.858C502.008,199.726,501.825,199.796,501.645,199.787z"/>
							</g>
						</g>
					</g>
				</g>
			</g>
			<g>
				<g>
					<g>
						<g>
							<g>
								<path style="fill:#A7255B;" d="M520.835,182.708c-0.109-0.006-0.217-0.041-0.313-0.107c-0.276-0.191-0.345-0.57-0.154-0.846
									l2.26-3.266c0.191-0.276,0.57-0.345,0.846-0.154c0.276,0.191,0.345,0.57,0.154,0.846l-2.26,3.266
									C521.243,182.627,521.039,182.719,520.835,182.708z"/>
							</g>
						</g>
					</g>
				</g>
			</g>
			<g>
				<g>
					<g>
						<g>
							<g>
								<path style="fill:#A7255B;" d="M510.141,195.336c-0.109-0.006-0.217-0.041-0.313-0.107c-0.276-0.191-0.345-0.57-0.154-0.846
									l2.26-3.266c0.191-0.276,0.57-0.345,0.846-0.154c0.276,0.191,0.345,0.57,0.154,0.846l-2.26,3.266
									C510.548,195.255,510.344,195.346,510.141,195.336z"/>
							</g>
						</g>
					</g>
				</g>
			</g>
			<g>
				<g>
					<g>
						<g>
							<g>
								<path style="fill:#A7255B;" d="M515.459,179.008c0.032,0.104,0.037,0.218,0.008,0.331c-0.083,0.325-0.415,0.521-0.74,0.438
									l-3.847-0.989c-0.325-0.084-0.521-0.415-0.438-0.74c0.084-0.325,0.415-0.521,0.74-0.437l3.847,0.989
									C515.242,178.653,515.398,178.813,515.459,179.008z"/>
							</g>
						</g>
					</g>
				</g>
			</g>
			<g>
				<g>
					<g>
						<g>
							<g>
								<path style="fill:#A7255B;" d="M528.079,194.534c-0.131-0.007-0.261-0.056-0.367-0.149l-2.993-2.611
									c-0.253-0.221-0.279-0.605-0.059-0.858c0.221-0.253,0.605-0.279,0.858-0.059l2.993,2.611
									c0.253,0.221,0.279,0.605,0.059,0.858C528.441,194.473,528.259,194.543,528.079,194.534z"/>
							</g>
						</g>
					</g>
				</g>
			</g>
			<g>
				<g>
					<g>
						<g>
							<g>
								<path style="fill:#A7255B;" d="M516.562,200.475c-0.077-0.055-0.142-0.129-0.188-0.219
									c-0.152-0.299-0.033-0.665,0.267-0.817l3.542-1.798c0.299-0.152,0.665-0.033,0.817,0.267
									c0.152,0.299,0.033,0.665-0.267,0.817l-3.542,1.798C516.982,200.629,516.741,200.603,516.562,200.475z"/>
							</g>
						</g>
					</g>
				</g>
			</g>
			<g>
				<g>
					<g>
						<g>
							<g>
								<path style="fill:#A7255B;" d="M571.39,190.219c-0.131-0.007-0.261-0.056-0.367-0.149l-2.993-2.611
									c-0.253-0.221-0.279-0.605-0.059-0.858c0.221-0.253,0.605-0.279,0.858-0.059l2.993,2.611
									c0.253,0.221,0.279,0.605,0.058,0.858C571.753,190.158,571.57,190.229,571.39,190.219z"/>
							</g>
						</g>
					</g>
				</g>
			</g>
			<g>
				<g>
					<g>
						<g>
							<g>
								<path style="fill:#A7255B;" d="M570.696,203.417c-0.131-0.007-0.261-0.056-0.367-0.149l-2.993-2.611
									c-0.253-0.221-0.279-0.605-0.059-0.858c0.221-0.253,0.605-0.279,0.858-0.059l2.993,2.611
									c0.253,0.221,0.279,0.605,0.059,0.858C571.059,203.356,570.876,203.427,570.696,203.417z"/>
							</g>
						</g>
					</g>
				</g>
			</g>
			<g>
				<g>
					<g>
						<g>
							<g>
								<path style="fill:#A7255B;" d="M589.887,186.339c-0.109-0.006-0.217-0.041-0.313-0.107c-0.276-0.191-0.345-0.57-0.154-0.846
									l2.26-3.266c0.191-0.276,0.57-0.345,0.846-0.154c0.276,0.191,0.345,0.57,0.154,0.846l-2.26,3.266
									C590.294,186.257,590.09,186.349,589.887,186.339z"/>
							</g>
						</g>
					</g>
				</g>
			</g>
			<g>
				<g>
					<g>
						<g>
							<g>
								<path style="fill:#A7255B;" d="M579.192,198.966c-0.109-0.006-0.217-0.041-0.313-0.107c-0.276-0.191-0.345-0.57-0.154-0.846
									l2.26-3.266c0.191-0.276,0.57-0.345,0.846-0.154c0.276,0.191,0.345,0.57,0.154,0.846l-2.26,3.266
									C579.6,198.885,579.396,198.977,579.192,198.966z"/>
							</g>
						</g>
					</g>
				</g>
			</g>
			<g>
				<g>
					<g>
						<g>
							<g>
								<path style="fill:#A7255B;" d="M600.19,205.668c-0.109-0.006-0.217-0.041-0.314-0.107c-0.276-0.191-0.345-0.57-0.154-0.846
									l2.26-3.266c0.191-0.276,0.57-0.345,0.846-0.154c0.276,0.191,0.345,0.57,0.154,0.846l-2.26,3.266
									C600.598,205.587,600.394,205.679,600.19,205.668z"/>
							</g>
						</g>
					</g>
				</g>
			</g>
			<g>
				<g>
					<g>
						<g>
							<g>
								<path style="fill:#A7255B;" d="M584.51,182.638c0.032,0.104,0.037,0.218,0.008,0.331c-0.083,0.325-0.415,0.521-0.74,0.438
									l-3.847-0.989c-0.325-0.084-0.521-0.415-0.438-0.74c0.084-0.325,0.415-0.521,0.74-0.437l3.847,0.989
									C584.293,182.284,584.45,182.444,584.51,182.638z"/>
							</g>
						</g>
					</g>
				</g>
			</g>
			<g>
				<g>
					<g>
						<g>
							<g>
								<path style="fill:#A7255B;" d="M597.262,195.657c-0.131-0.007-0.261-0.056-0.367-0.149l-2.993-2.611
									c-0.253-0.221-0.279-0.605-0.058-0.858s0.605-0.279,0.858-0.059l2.993,2.611c0.253,0.221,0.279,0.605,0.058,0.858
									C597.625,195.596,597.442,195.666,597.262,195.657z"/>
							</g>
						</g>
					</g>
				</g>
			</g>
			<g>
				<g>
					<g>
						<g>
							<g>
								<path style="fill:#A7255B;" d="M585.613,204.106c-0.077-0.055-0.142-0.129-0.188-0.219
									c-0.152-0.299-0.033-0.665,0.267-0.817l3.542-1.798c0.299-0.152,0.665-0.033,0.817,0.267
									c0.152,0.299,0.033,0.665-0.267,0.817l-3.542,1.798C586.034,204.26,585.792,204.233,585.613,204.106z"/>
							</g>
						</g>
					</g>
				</g>
			</g>
			<g>
				<g>
					<g>
						<g>
							<g>
								<path style="fill:#A7255B;" d="M548.16,191.299c-0.109-0.006-0.217-0.041-0.313-0.107c-0.276-0.191-0.345-0.57-0.154-0.846
									l2.26-3.266c0.191-0.276,0.57-0.345,0.846-0.154c0.276,0.191,0.345,0.57,0.154,0.846l-2.26,3.266
									C548.568,191.218,548.364,191.31,548.16,191.299z"/>
							</g>
						</g>
					</g>
				</g>
			</g>
			<g>
				<g>
					<g>
						<g>
							<g>
								<path style="fill:#A7255B;" d="M537.962,201.401c-0.109-0.006-0.217-0.041-0.313-0.107c-0.276-0.191-0.345-0.57-0.154-0.846
									l2.26-3.266c0.191-0.276,0.57-0.345,0.846-0.154c0.276,0.191,0.345,0.57,0.154,0.846l-2.26,3.266
									C538.37,201.32,538.165,201.412,537.962,201.401z"/>
							</g>
						</g>
					</g>
				</g>
			</g>
			<g>
				<g>
					<g>
						<g>
							<g>
								<path style="fill:#A7255B;" d="M539.385,188.719c0.032,0.104,0.037,0.218,0.008,0.331c-0.084,0.325-0.415,0.521-0.74,0.438
									l-3.847-0.989c-0.325-0.084-0.521-0.415-0.437-0.74c0.083-0.325,0.415-0.521,0.74-0.437l3.847,0.989
									C539.168,188.365,539.325,188.525,539.385,188.719z"/>
							</g>
						</g>
					</g>
				</g>
			</g>
			<g>
				<g>
					<g>
						<g>
							<g>
								<path style="fill:#A7255B;" d="M562.007,193.397c-0.131-0.007-0.261-0.056-0.367-0.149l-2.993-2.611
									c-0.253-0.221-0.279-0.605-0.059-0.858c0.221-0.253,0.605-0.279,0.858-0.059l2.993,2.611
									c0.253,0.221,0.279,0.605,0.058,0.858C562.37,193.336,562.187,193.406,562.007,193.397z"/>
							</g>
						</g>
					</g>
				</g>
			</g>
			<g>
				<g>
					<g>
						<g>
							<g>
								<path style="fill:#A7255B;" d="M549.64,202.363c-0.077-0.055-0.142-0.129-0.188-0.219c-0.152-0.299-0.033-0.665,0.267-0.817
									l3.542-1.798c0.299-0.152,0.665-0.033,0.817,0.267c0.152,0.299,0.033,0.665-0.267,0.817l-3.542,1.798
									C550.06,202.517,549.818,202.491,549.64,202.363z"/>
							</g>
						</g>
					</g>
				</g>
			</g>
			<g>
				<g>
					<g>
						<g>
							<g>
								<path style="fill:#A7255B;" d="M514.037,219.406c-0.109-0.006-0.217-0.041-0.314-0.107c-0.276-0.191-0.345-0.57-0.154-0.846
									l2.26-3.266c0.191-0.276,0.57-0.345,0.846-0.154c0.276,0.191,0.345,0.57,0.154,0.846l-2.26,3.266
									C514.445,219.325,514.24,219.417,514.037,219.406z"/>
							</g>
						</g>
					</g>
				</g>
			</g>
			<g>
				<g>
					<g>
						<g>
							<g>
								<path style="fill:#A7255B;" d="M531.975,218.604c-0.131-0.007-0.261-0.056-0.367-0.149l-2.993-2.611
									c-0.253-0.221-0.279-0.605-0.058-0.858c0.221-0.253,0.605-0.279,0.858-0.059l2.993,2.611
									c0.253,0.221,0.279,0.605,0.058,0.858C532.338,218.543,532.155,218.614,531.975,218.604z"/>
							</g>
						</g>
					</g>
				</g>
			</g>
			<g>
				<g>
					<g>
						<g>
							<g>
								<path style="fill:#A7255B;" d="M520.458,224.546c-0.077-0.055-0.142-0.129-0.188-0.219
									c-0.152-0.299-0.033-0.665,0.267-0.817l3.542-1.798c0.299-0.152,0.665-0.033,0.817,0.267
									c0.152,0.299,0.033,0.665-0.267,0.817l-3.542,1.798C520.878,224.7,520.637,224.673,520.458,224.546z"/>
							</g>
						</g>
					</g>
				</g>
			</g>
			<g>
				<g>
					<g>
						<g>
							<g>
								<path style="fill:#A7255B;" d="M575.286,214.29c-0.131-0.007-0.261-0.056-0.367-0.149l-2.993-2.611
									c-0.253-0.221-0.279-0.605-0.058-0.858c0.221-0.253,0.605-0.279,0.858-0.059l2.993,2.611
									c0.253,0.221,0.279,0.605,0.059,0.858C575.649,214.229,575.466,214.299,575.286,214.29z"/>
							</g>
						</g>
					</g>
				</g>
			</g>
			<g>
				<g>
					<g>
						<g>
							<g>
								<path style="fill:#A7255B;" d="M574.592,227.488c-0.131-0.007-0.261-0.056-0.367-0.149l-2.993-2.611
									c-0.253-0.221-0.279-0.605-0.059-0.858c0.221-0.253,0.605-0.279,0.858-0.058l2.993,2.611
									c0.253,0.221,0.279,0.605,0.058,0.858C574.955,227.427,574.772,227.497,574.592,227.488z"/>
							</g>
						</g>
					</g>
				</g>
			</g>
			<g>
				<g>
					<g>
						<g>
							<g>
								<path style="fill:#A7255B;" d="M528.921,231.74c-0.131-0.007-0.261-0.056-0.367-0.149l-2.993-2.611
									c-0.253-0.221-0.279-0.605-0.059-0.858c0.221-0.253,0.605-0.279,0.858-0.059l2.993,2.611
									c0.253,0.221,0.279,0.605,0.059,0.858C529.283,231.679,529.101,231.749,528.921,231.74z"/>
							</g>
						</g>
					</g>
				</g>
			</g>
			<g>
				<g>
					<g>
						<g>
							<g>
								<path style="fill:#A7255B;" d="M583.088,223.037c-0.109-0.006-0.217-0.041-0.313-0.107c-0.276-0.191-0.345-0.57-0.154-0.846
									l2.26-3.266c0.191-0.276,0.57-0.345,0.846-0.154c0.276,0.191,0.345,0.57,0.154,0.846l-2.26,3.266
									C583.496,222.956,583.292,223.048,583.088,223.037z"/>
							</g>
						</g>
					</g>
				</g>
			</g>
			<g>
				<g>
					<g>
						<g>
							<g>
								<path style="fill:#A7255B;" d="M552.056,215.37c-0.109-0.006-0.217-0.041-0.313-0.107c-0.276-0.191-0.345-0.57-0.154-0.846
									l2.26-3.266c0.191-0.276,0.57-0.345,0.846-0.154c0.276,0.191,0.345,0.57,0.154,0.846l-2.26,3.266
									C552.464,215.288,552.26,215.38,552.056,215.37z"/>
							</g>
						</g>
					</g>
				</g>
			</g>
			<g>
				<g>
					<g>
						<g>
							<g>
								<path style="fill:#A7255B;" d="M541.858,225.472c-0.109-0.006-0.217-0.041-0.313-0.107c-0.276-0.191-0.345-0.57-0.154-0.846
									l2.26-3.266c0.191-0.276,0.57-0.345,0.846-0.154c0.276,0.191,0.345,0.57,0.154,0.846l-2.26,3.266
									C542.266,225.391,542.061,225.482,541.858,225.472z"/>
							</g>
						</g>
					</g>
				</g>
			</g>
			<g>
				<g>
					<g>
						<g>
							<g>
								<path style="fill:#A7255B;" d="M524.189,210.303c-0.109-0.006-0.217-0.041-0.313-0.107c-0.276-0.191-0.345-0.57-0.154-0.846
									l2.26-3.266c0.191-0.276,0.57-0.345,0.846-0.154c0.276,0.191,0.345,0.57,0.154,0.846l-2.26,3.266
									C524.597,210.222,524.393,210.314,524.189,210.303z"/>
							</g>
						</g>
					</g>
				</g>
			</g>
			<g>
				<g>
					<g>
						<g>
							<g>
								<path style="fill:#A7255B;" d="M543.281,212.79c0.032,0.104,0.037,0.218,0.008,0.331c-0.084,0.325-0.415,0.521-0.74,0.437
									l-3.847-0.989c-0.325-0.084-0.521-0.415-0.437-0.74c0.084-0.325,0.415-0.521,0.74-0.438l3.847,0.989
									C543.064,212.435,543.221,212.595,543.281,212.79z"/>
							</g>
						</g>
					</g>
				</g>
			</g>
			<g>
				<g>
					<g>
						<g>
							<g>
								<path style="fill:#A7255B;" d="M565.903,217.468c-0.131-0.007-0.261-0.056-0.367-0.149l-2.993-2.611
									c-0.253-0.221-0.279-0.605-0.059-0.858c0.221-0.253,0.605-0.279,0.858-0.059l2.993,2.611
									c0.253,0.221,0.279,0.605,0.058,0.858C566.266,217.407,566.083,217.477,565.903,217.468z"/>
							</g>
						</g>
					</g>
				</g>
			</g>
			<g>
				<g>
					<g>
						<g>
							<g>
								<path style="fill:#A7255B;" d="M553.536,226.434c-0.077-0.055-0.142-0.129-0.188-0.219
									c-0.152-0.299-0.033-0.665,0.267-0.817l3.542-1.798c0.299-0.152,0.665-0.033,0.817,0.267
									c0.152,0.299,0.033,0.665-0.267,0.817l-3.542,1.798C553.956,226.588,553.714,226.562,553.536,226.434z"/>
							</g>
						</g>
					</g>
				</g>
			</g>
			<g>
				<g>
					<g>
						<g>
							<g>
								<path style="fill:#A7255B;" d="M514.037,243.796c-0.109-0.006-0.217-0.041-0.314-0.107c-0.276-0.191-0.345-0.57-0.154-0.846
									l2.26-3.266c0.191-0.276,0.57-0.345,0.846-0.154c0.276,0.191,0.345,0.57,0.154,0.846l-2.26,3.266
									C514.445,243.714,514.24,243.806,514.037,243.796z"/>
							</g>
						</g>
					</g>
				</g>
			</g>
			<g>
				<g>
					<g>
						<g>
							<g>
								<path style="fill:#A7255B;" d="M531.975,242.994c-0.131-0.007-0.261-0.056-0.367-0.149l-2.993-2.611
									c-0.253-0.221-0.279-0.605-0.058-0.858c0.221-0.253,0.605-0.279,0.858-0.059l2.993,2.611
									c0.253,0.221,0.279,0.605,0.058,0.858C532.338,242.933,532.155,243.003,531.975,242.994z"/>
							</g>
						</g>
					</g>
				</g>
			</g>
			<g>
				<g>
					<g>
						<g>
							<g>
								<path style="fill:#A7255B;" d="M520.458,248.935c-0.077-0.055-0.142-0.129-0.188-0.219
									c-0.152-0.299-0.033-0.665,0.267-0.817l3.542-1.798c0.299-0.152,0.665-0.033,0.817,0.267
									c0.152,0.299,0.033,0.665-0.267,0.817l-3.542,1.798C520.878,249.089,520.637,249.063,520.458,248.935z"/>
							</g>
						</g>
					</g>
				</g>
			</g>
			<g>
				<g>
					<g>
						<g>
							<g>
								<path style="fill:#A7255B;" d="M575.286,238.679c-0.131-0.007-0.261-0.056-0.367-0.149l-2.993-2.611
									c-0.253-0.221-0.279-0.605-0.058-0.858c0.221-0.253,0.605-0.279,0.858-0.059l2.993,2.611
									c0.253,0.221,0.279,0.605,0.059,0.858C575.649,238.618,575.466,238.689,575.286,238.679z"/>
							</g>
						</g>
					</g>
				</g>
			</g>
			<g>
				<g>
					<g>
						<g>
							<g>
								<path style="fill:#A7255B;" d="M574.592,251.877c-0.131-0.007-0.261-0.056-0.367-0.149l-2.993-2.611
									c-0.253-0.221-0.279-0.605-0.059-0.858c0.221-0.253,0.605-0.279,0.858-0.059l2.993,2.611
									c0.253,0.221,0.279,0.605,0.058,0.858C574.955,251.816,574.772,251.887,574.592,251.877z"/>
							</g>
						</g>
					</g>
				</g>
			</g>
			<g>
				<g>
					<g>
						<g>
							<g>
								<path style="fill:#A7255B;" d="M583.088,247.426c-0.109-0.006-0.217-0.041-0.313-0.107c-0.276-0.191-0.345-0.57-0.154-0.846
									l2.26-3.266c0.191-0.276,0.57-0.345,0.846-0.154c0.276,0.191,0.345,0.57,0.154,0.846l-2.26,3.266
									C583.496,247.345,583.292,247.437,583.088,247.426z"/>
							</g>
						</g>
					</g>
				</g>
			</g>
			<g>
				<g>
					<g>
						<g>
							<g>
								<path style="fill:#A7255B;" d="M552.056,239.759c-0.109-0.006-0.217-0.041-0.313-0.107c-0.276-0.191-0.345-0.57-0.154-0.846
									l2.26-3.266c0.191-0.276,0.57-0.345,0.846-0.154c0.276,0.191,0.345,0.57,0.154,0.846l-2.26,3.266
									C552.464,239.678,552.26,239.77,552.056,239.759z"/>
							</g>
						</g>
					</g>
				</g>
			</g>
			<g>
				<g>
					<g>
						<g>
							<g>
								<path style="fill:#A7255B;" d="M541.858,249.861c-0.109-0.006-0.217-0.041-0.313-0.107c-0.276-0.191-0.345-0.57-0.154-0.846
									l2.26-3.266c0.191-0.276,0.57-0.345,0.846-0.154c0.276,0.191,0.345,0.57,0.154,0.846l-2.26,3.266
									C542.266,249.78,542.061,249.872,541.858,249.861z"/>
							</g>
						</g>
					</g>
				</g>
			</g>
			<g>
				<g>
					<g>
						<g>
							<g>
								<path style="fill:#A7255B;" d="M543.281,237.179c0.032,0.104,0.037,0.218,0.008,0.331c-0.084,0.325-0.415,0.521-0.74,0.437
									l-3.847-0.989c-0.325-0.084-0.521-0.415-0.437-0.74c0.084-0.325,0.415-0.521,0.74-0.437l3.847,0.989
									C543.064,236.825,543.221,236.984,543.281,237.179z"/>
							</g>
						</g>
					</g>
				</g>
			</g>
			<g>
				<g>
					<g>
						<g>
							<g>
								<path style="fill:#A7255B;" d="M565.903,241.857c-0.131-0.007-0.261-0.056-0.367-0.149l-2.993-2.611
									c-0.253-0.221-0.279-0.605-0.059-0.858c0.221-0.253,0.605-0.279,0.858-0.059l2.993,2.611
									c0.253,0.221,0.279,0.605,0.058,0.858C566.266,241.796,566.083,241.866,565.903,241.857z"/>
							</g>
						</g>
					</g>
				</g>
			</g>
			<g>
				<g>
					<g>
						<g>
							<g>
								<path style="fill:#A7255B;" d="M588.106,233.653c-0.131-0.007-0.261-0.056-0.367-0.149l-2.993-2.611
									c-0.253-0.221-0.279-0.605-0.059-0.858c0.221-0.253,0.605-0.279,0.858-0.059l2.993,2.611
									c0.253,0.221,0.279,0.605,0.058,0.858C588.469,233.592,588.287,233.663,588.106,233.653z"/>
							</g>
						</g>
					</g>
				</g>
			</g>
			<g>
				<g>
					<g>
						<g>
							<g>
								<path style="fill:#A7255B;" d="M553.536,250.823c-0.077-0.055-0.142-0.129-0.188-0.219
									c-0.152-0.299-0.033-0.665,0.267-0.817l3.542-1.798c0.299-0.152,0.665-0.033,0.817,0.267
									c0.152,0.299,0.033,0.665-0.267,0.817l-3.542,1.798C553.956,250.977,553.714,250.951,553.536,250.823z"/>
							</g>
						</g>
					</g>
				</g>
			</g>
			<g>
				<g>
					<g>
						<g>
							<g>
								<path style="fill:#A7255B;" d="M528.386,253.272c-0.077-0.055-0.142-0.129-0.188-0.219
									c-0.152-0.299-0.033-0.665,0.267-0.817l3.542-1.798c0.299-0.152,0.665-0.033,0.817,0.267
									c0.152,0.299,0.033,0.665-0.267,0.817l-3.542,1.798C528.806,253.426,528.564,253.399,528.386,253.272z"/>
							</g>
						</g>
					</g>
				</g>
			</g>
			<g>
				<g>
					<g>
						<g>
							<g>
								<path style="fill:#A7255B;" d="M514.037,268.185c-0.109-0.006-0.217-0.041-0.314-0.107c-0.276-0.191-0.345-0.57-0.154-0.846
									l2.26-3.266c0.191-0.276,0.57-0.345,0.846-0.154c0.276,0.191,0.345,0.57,0.154,0.846l-2.26,3.266
									C514.445,268.104,514.24,268.196,514.037,268.185z"/>
							</g>
						</g>
					</g>
				</g>
			</g>
			<g>
				<g>
					<g>
						<g>
							<g>
								<path style="fill:#A7255B;" d="M531.975,267.383c-0.131-0.007-0.261-0.056-0.367-0.149l-2.993-2.611
									c-0.253-0.221-0.279-0.605-0.058-0.858c0.221-0.253,0.605-0.279,0.858-0.059l2.993,2.611
									c0.253,0.221,0.279,0.605,0.058,0.858C532.338,267.322,532.155,267.392,531.975,267.383z"/>
							</g>
						</g>
					</g>
				</g>
			</g>
			<g>
				<g>
					<g>
						<g>
							<g>
								<path style="fill:#A7255B;" d="M520.458,273.324c-0.077-0.055-0.142-0.129-0.188-0.219
									c-0.152-0.299-0.033-0.665,0.267-0.817l3.542-1.798c0.299-0.152,0.665-0.033,0.817,0.267
									c0.152,0.299,0.033,0.665-0.267,0.817l-3.542,1.798C520.878,273.478,520.637,273.452,520.458,273.324z"/>
							</g>
						</g>
					</g>
				</g>
			</g>
			<g>
				<g>
					<g>
						<g>
							<g>
								<path style="fill:#A7255B;" d="M575.286,263.068c-0.131-0.007-0.261-0.056-0.367-0.149l-2.993-2.611
									c-0.253-0.221-0.279-0.605-0.058-0.858c0.221-0.253,0.605-0.279,0.858-0.058l2.993,2.611
									c0.253,0.221,0.279,0.605,0.059,0.858C575.649,263.008,575.466,263.078,575.286,263.068z"/>
							</g>
						</g>
					</g>
				</g>
			</g>
			<g>
				<g>
					<g>
						<g>
							<g>
								<path style="fill:#A7255B;" d="M586.002,257.773c-0.131-0.007-0.261-0.056-0.367-0.149l-2.993-2.611
									c-0.253-0.221-0.279-0.605-0.059-0.858c0.221-0.253,0.605-0.279,0.858-0.059l2.993,2.611
									c0.253,0.221,0.279,0.605,0.058,0.858C586.365,257.712,586.182,257.782,586.002,257.773z"/>
							</g>
						</g>
					</g>
				</g>
			</g>
			<g>
				<g>
					<g>
						<g>
							<g>
								<path style="fill:#A7255B;" d="M574.592,276.267c-0.131-0.007-0.261-0.056-0.367-0.149l-2.993-2.611
									c-0.253-0.221-0.279-0.605-0.059-0.858c0.221-0.253,0.605-0.279,0.858-0.058l2.993,2.611
									c0.253,0.221,0.279,0.605,0.058,0.858C574.955,276.206,574.772,276.276,574.592,276.267z"/>
							</g>
						</g>
					</g>
				</g>
			</g>
			<g>
				<g>
					<g>
						<g>
							<g>
								<path style="fill:#A7255B;" d="M583.088,271.816c-0.109-0.006-0.217-0.041-0.313-0.107c-0.276-0.191-0.345-0.57-0.154-0.846
									l2.26-3.266c0.191-0.276,0.57-0.345,0.846-0.154c0.276,0.191,0.345,0.57,0.154,0.846l-2.26,3.266
									C583.496,271.734,583.292,271.826,583.088,271.816z"/>
							</g>
						</g>
					</g>
				</g>
			</g>
			<g>
				<g>
					<g>
						<g>
							<g>
								<path style="fill:#A7255B;" d="M552.056,264.148c-0.109-0.006-0.217-0.041-0.313-0.107c-0.276-0.191-0.345-0.57-0.154-0.846
									l2.26-3.266c0.191-0.276,0.57-0.345,0.846-0.154c0.276,0.191,0.345,0.57,0.154,0.846l-2.26,3.266
									C552.464,264.067,552.26,264.159,552.056,264.148z"/>
							</g>
						</g>
					</g>
				</g>
			</g>
			<g>
				<g>
					<g>
						<g>
							<g>
								<path style="fill:#A7255B;" d="M541.858,274.25c-0.109-0.006-0.217-0.041-0.313-0.107c-0.276-0.191-0.345-0.57-0.154-0.846
									l2.26-3.266c0.191-0.276,0.57-0.345,0.846-0.154c0.276,0.191,0.345,0.57,0.154,0.846l-2.26,3.266
									C542.266,274.169,542.061,274.261,541.858,274.25z"/>
							</g>
						</g>
					</g>
				</g>
			</g>
			<g>
				<g>
					<g>
						<g>
							<g>
								<path style="fill:#A7255B;" d="M543.281,261.569c0.032,0.104,0.037,0.218,0.008,0.331c-0.084,0.325-0.415,0.521-0.74,0.438
									l-3.847-0.989c-0.325-0.084-0.521-0.415-0.437-0.74c0.084-0.325,0.415-0.521,0.74-0.437l3.847,0.989
									C543.064,261.214,543.221,261.374,543.281,261.569z"/>
							</g>
						</g>
					</g>
				</g>
			</g>
			<g>
				<g>
					<g>
						<g>
							<g>
								<path style="fill:#A7255B;" d="M565.903,266.246c-0.131-0.007-0.261-0.056-0.367-0.149l-2.993-2.611
									c-0.253-0.221-0.279-0.605-0.059-0.858s0.605-0.279,0.858-0.059l2.993,2.611c0.253,0.221,0.279,0.605,0.058,0.858
									C566.266,266.185,566.083,266.256,565.903,266.246z"/>
							</g>
						</g>
					</g>
				</g>
			</g>
			<g>
				<g>
					<g>
						<g>
							<g>
								<path style="fill:#A7255B;" d="M534.354,280.094c-0.131-0.007-0.261-0.056-0.367-0.149l-2.993-2.611
									c-0.253-0.221-0.279-0.605-0.059-0.858c0.221-0.253,0.605-0.279,0.858-0.059l2.993,2.611
									c0.253,0.221,0.279,0.605,0.059,0.858C534.716,280.033,534.534,280.103,534.354,280.094z"/>
							</g>
						</g>
					</g>
				</g>
			</g>
			<g>
				<g>
					<g>
						<g>
							<g>
								<path style="fill:#A7255B;" d="M553.536,275.213c-0.077-0.055-0.142-0.129-0.188-0.219
									c-0.152-0.299-0.033-0.665,0.267-0.817l3.542-1.798c0.299-0.152,0.665-0.033,0.817,0.267
									c0.152,0.299,0.033,0.665-0.267,0.817l-3.542,1.798C553.956,275.367,553.714,275.34,553.536,275.213z"/>
							</g>
						</g>
					</g>
				</g>
			</g>
			<g>
				<polygon style="fill:#5848BC;" points="549.517,167.762 549.516,167.772 549.448,167.765 				"/>
			</g>
			<path style="fill:#3B2539;" d="M501.905,288.094c0,0-9.39,39.889-11.129,68.791c-1.739,28.902,0,66.764,0,66.764h115.646
				c0,0-0.604-50.708-3.332-79.609c-2.728-28.902-9.398-58.072-9.398-58.072L501.905,288.094z"/>
			<path style="fill:#E2C9B3;" d="M563.566,361.033c0.803,0,4.148-1.472,4.148-1.472l-10.571-38.268l-53.121,18.738l9.5,34.249
				L563.566,361.033z"/>
			<g>
				<polygon style="fill:#5848BC;" points="549.448,167.765 549.377,167.765 549.377,167.755 				"/>
			</g>
			<g>
				<g>
					<g>
						<path style="fill:#E38680;" d="M560.175,172.234c0,0-3.351,5.549-11.88,5.101c-8.24-0.433-11.394-6.609-11.394-6.609
							l0.72-4.08l0.121-0.686l1.132-6.425l20.357,1.641l0.211,2.478l0.07,0.811L560.175,172.234z"/>
					</g>
					<g>
						<path style="fill:#F2EDFD;" d="M567.704,181.488c-5.417,6.265-16.236,2.171-19.561-2.794
							c-3.827,4.589-15.017,7.526-19.749,0.727c-4.556-6.545,8.97-11.329,8.97-11.329c1.033,6.162,8.358,8.506,10.857,9.109
							c2.55-0.34,10.029-1.903,11.701-7.923C559.922,169.278,572.921,175.457,567.704,181.488z"/>
					</g>
					<g>
						<path style="fill:#3B2539;" d="M559.44,163.652c-4.824,3.672-12.374,4.769-21.821,2.993l0.121-0.686l1.132-6.425l20.357,1.641
							L559.44,163.652z"/>
					</g>
				</g>
				<g>
					<g>
						<path style="fill:#D55B5D;" d="M532.102,142.301c-4.895,6.126-14.489,1.308-13.376-7.106c1.01-7.633,9.506-5.967,9.506-5.967
							L532.102,142.301z"/>
					</g>
					<g>
						<path style="fill:#EAA940;" d="M527.193,145.36c-0.082,1.565-1.417,2.766-2.982,2.684c-1.565-0.082-2.766-1.417-2.684-2.982
							c0.082-1.564,1.417-2.766,2.982-2.684C526.073,142.461,527.275,143.796,527.193,145.36z"/>
					</g>
					<g>
						<path style="fill:#B33A41;" d="M527.895,142.243c-0.274-0.014-0.513-0.214-0.566-0.495c-0.699-3.673-4.286-7.257-4.323-7.293
							c-0.239-0.237-0.241-0.622-0.005-0.862c0.236-0.239,0.622-0.242,0.861-0.005c0.159,0.157,3.893,3.882,4.663,7.932
							c0.063,0.331-0.154,0.65-0.485,0.713C527.992,142.242,527.943,142.245,527.895,142.243z"/>
					</g>
					<g>
						<path style="fill:#B33A41;" d="M526.507,138.715c-0.064-0.003-0.129-0.017-0.191-0.042c-1.638-0.646-3.248-0.391-3.264-0.388
							c-0.332,0.055-0.645-0.169-0.701-0.5c-0.055-0.332,0.167-0.645,0.498-0.701c0.079-0.013,1.95-0.318,3.914,0.456
							c0.313,0.123,0.467,0.477,0.344,0.79C527.007,138.58,526.761,138.729,526.507,138.715z"/>
					</g>
				</g>
				<g>
					<g>
						<path style="fill:#D55B5D;" d="M565.868,144.077c4.225,6.605,14.272,2.82,14.047-5.664c-0.204-7.696-8.828-6.931-8.828-6.931
							L565.868,144.077z"/>
					</g>
					<g>
						<path style="fill:#EAA940;" d="M576.349,147.945c-0.082,1.565-1.417,2.766-2.982,2.684c-1.565-0.082-2.766-1.417-2.684-2.982
							c0.082-1.564,1.417-2.766,2.982-2.684C575.229,145.045,576.431,146.38,576.349,147.945z"/>
					</g>
					<g>
						<path style="fill:#B33A41;" d="M570.058,144.46c-0.048-0.002-0.096-0.011-0.144-0.025c-0.322-0.097-0.505-0.437-0.407-0.76
							c1.191-3.947,5.295-7.26,5.469-7.399c0.263-0.21,0.646-0.167,0.856,0.096c0.21,0.263,0.167,0.646-0.095,0.856
							c-0.04,0.032-3.983,3.22-5.063,6.799C570.59,144.301,570.331,144.474,570.058,144.46z"/>
					</g>
					<g>
						<path style="fill:#B33A41;" d="M571.808,141.097c-0.255-0.013-0.483-0.187-0.555-0.446c-0.09-0.324,0.1-0.66,0.424-0.75
							c2.034-0.564,3.864-0.065,3.94-0.043c0.324,0.091,0.513,0.427,0.422,0.751c-0.091,0.324-0.426,0.513-0.75,0.423l0,0
							c-0.016-0.004-1.591-0.426-3.287,0.044C571.938,141.093,571.872,141.1,571.808,141.097z"/>
					</g>
				</g>
				<g>
					<path style="fill:#E38680;" d="M526.905,119.826c0,0-2.953,13.694,2.109,27.506c4.588,12.518,11.348,16.7,18.747,17.206
						c8.416,0.575,26.31-3.369,25.62-43.482C572.915,93.952,530.568,92.681,526.905,119.826z"/>
				</g>
				<g>
					<path style="fill:#4F1E4A;" d="M525.377,125.868c0,0-0.008,8.578,3.558,8.443c3.567-0.135,2.856-19.496,2.856-19.496
						s2.917,4.832,8.716,4.628c5.799-0.204,0.958-7.984,0.958-7.984s4.937,7.684,9.827,7.636c4.889-0.048,0.496-9.432,0.496-9.432
						s5.821,10.68,10.416,10.616c4.595-0.064,1.17-8.888,1.17-8.888s3.143,9.727,6.585,10.618c0,0-1.614,14,2.138,13.605
						c3.752-0.395,3.201-16.172,1.922-21.019c-1.279-4.847-8.847-17.246-24.708-16.555
						C533.45,98.731,526.645,107.119,525.377,125.868z"/>
				</g>
				<g>
					<path style="fill:#4F1E4A;" d="M534.404,127.236c0,0,3.464-4.32,9.054-4.609c0.909-0.047,1.669,0.688,1.676,1.598l0,0.015
						c0.007,0.921-0.759,1.657-1.679,1.622C541.365,125.781,537.683,125.885,534.404,127.236z"/>
				</g>
				<g>
					<path style="fill:#4F1E4A;" d="M565.599,128.876c0,0-2.991-4.659-8.521-5.533c-0.899-0.142-1.732,0.509-1.834,1.414
						l-0.002,0.015c-0.104,0.915,0.58,1.728,1.5,1.789C558.828,126.7,562.479,127.189,565.599,128.876z"/>
				</g>
				<g>
					<path style="fill:#D55B5D;" d="M549.185,157.422c-1.736-0.091-3.073-0.769-3.163-0.815c-0.249-0.129-0.346-0.435-0.217-0.685
						c0.129-0.249,0.435-0.347,0.684-0.218c0.043,0.022,3.094,1.55,5.684,0.034c0.242-0.142,0.553-0.06,0.695,0.181
						c0.142,0.242,0.06,0.553-0.182,0.695C551.502,157.308,550.266,157.479,549.185,157.422z"/>
				</g>
				<g>
					<path style="fill:#D55B5D;" d="M551.661,144.592c-0.013-0.001-0.027-0.002-0.041-0.004l-3.693-0.494
						c-0.278-0.037-0.473-0.293-0.436-0.571c0.037-0.278,0.292-0.469,0.571-0.436l3.088,0.413l-0.472-9.478
						c-0.014-0.28,0.202-0.518,0.482-0.533c0.281-0.014,0.518,0.202,0.533,0.482l0.502,10.087c0.008,0.151-0.052,0.297-0.163,0.399
						C551.93,144.551,551.797,144.599,551.661,144.592z"/>
				</g>
				<g>
					<path style="fill:#F2EDFD;" d="M541.694,148.123c4.523,0.951,9.155,1.504,15.431,0.594c0,0-0.887,6.612-8.266,6.253
						C542.584,154.666,541.694,148.123,541.694,148.123z"/>
				</g>
				<g>
					<path style="fill:#3B2539;" d="M542.095,133.52c-0.093,1.759-0.967,3.142-1.953,3.09c-0.986-0.052-1.71-1.52-1.618-3.278
						c0.093-1.759,0.967-3.142,1.953-3.09C541.463,130.294,542.188,131.761,542.095,133.52z"/>
				</g>
				<g>
					<path style="fill:#3B2539;" d="M561.085,134.518c-0.092,1.759-0.967,3.142-1.953,3.09c-0.986-0.052-1.71-1.52-1.618-3.278
						c0.092-1.759,0.967-3.142,1.953-3.091C560.453,131.292,561.177,132.76,561.085,134.518z"/>
				</g>
				<g>
					<g>
						<path style="fill:#D55B5D;" d="M535.227,139.708c-0.016,0.302-0.274,0.535-0.576,0.519c-0.302-0.016-0.535-0.274-0.519-0.576
							c0.016-0.303,0.274-0.535,0.576-0.519C535.011,139.147,535.243,139.405,535.227,139.708z"/>
					</g>
					<g>
						<path style="fill:#D55B5D;" d="M537.831,141.17c-0.016,0.302-0.274,0.535-0.576,0.519c-0.302-0.016-0.535-0.274-0.519-0.576
							c0.016-0.303,0.274-0.535,0.576-0.519C537.615,140.609,537.847,140.867,537.831,141.17z"/>
					</g>
					<g>
						<path style="fill:#D55B5D;" d="M535.057,142.933c-0.016,0.302-0.274,0.535-0.576,0.519c-0.302-0.016-0.535-0.274-0.519-0.576
							c0.016-0.302,0.274-0.535,0.576-0.519C534.841,142.372,535.073,142.63,535.057,142.933z"/>
					</g>
					<g>
						<path style="fill:#D55B5D;" d="M539.231,143.702c-0.016,0.302-0.274,0.535-0.576,0.519c-0.302-0.016-0.535-0.274-0.519-0.576
							c0.016-0.302,0.274-0.535,0.576-0.519C539.015,143.141,539.247,143.399,539.231,143.702z"/>
					</g>
					<g>
						<path style="fill:#D55B5D;" d="M542.061,143.301c-0.016,0.302-0.274,0.535-0.576,0.519c-0.302-0.016-0.535-0.274-0.519-0.576
							c0.016-0.302,0.274-0.535,0.576-0.519C541.845,142.741,542.077,142.999,542.061,143.301z"/>
					</g>
					<g>
						<path style="fill:#D55B5D;" d="M540.928,140.556c-0.016,0.303-0.274,0.535-0.576,0.519c-0.302-0.016-0.535-0.274-0.519-0.576
							c0.016-0.302,0.274-0.535,0.576-0.519C540.712,139.996,540.944,140.254,540.928,140.556z"/>
					</g>
				</g>
				<g>
					<g>
						<path style="fill:#D55B5D;" d="M564.766,141.261c-0.016,0.302,0.216,0.56,0.519,0.576c0.302,0.016,0.56-0.216,0.576-0.519
							c0.016-0.303-0.216-0.561-0.519-0.576C565.04,140.726,564.782,140.958,564.766,141.261z"/>
					</g>
					<g>
						<path style="fill:#D55B5D;" d="M562.023,142.442c-0.016,0.302,0.216,0.561,0.519,0.576c0.303,0.016,0.561-0.216,0.576-0.519
							c0.016-0.303-0.216-0.561-0.519-0.576C562.297,141.907,562.039,142.139,562.023,142.442z"/>
					</g>
					<g>
						<path style="fill:#D55B5D;" d="M564.596,144.486c-0.016,0.302,0.216,0.561,0.519,0.576c0.302,0.016,0.56-0.216,0.576-0.519
							c0.016-0.302-0.216-0.561-0.519-0.576C564.87,143.951,564.612,144.184,564.596,144.486z"/>
					</g>
					<g>
						<path style="fill:#D55B5D;" d="M560.365,144.813c-0.016,0.302,0.216,0.56,0.519,0.576c0.302,0.016,0.56-0.216,0.576-0.519
							c0.016-0.302-0.216-0.56-0.519-0.576C560.638,144.278,560.38,144.51,560.365,144.813z"/>
					</g>
					<g>
						<path style="fill:#D55B5D;" d="M557.592,144.118c-0.016,0.302,0.216,0.56,0.519,0.576c0.302,0.016,0.56-0.216,0.576-0.519
							c0.016-0.303-0.216-0.561-0.519-0.576C557.866,143.583,557.608,143.815,557.592,144.118z"/>
					</g>
					<g>
						<path style="fill:#D55B5D;" d="M559.007,141.507c-0.016,0.303,0.216,0.561,0.519,0.576c0.302,0.016,0.56-0.216,0.576-0.519
							c0.016-0.302-0.216-0.56-0.519-0.576C559.281,140.972,559.023,141.204,559.007,141.507z"/>
					</g>
				</g>
				<g>
					<g>
						<path style="fill:#F2EDFD;" d="M539.047,143.819c-4.931-0.259-8.732-4.482-8.473-9.413c0.259-4.931,4.482-8.732,9.413-8.473
							c4.931,0.259,8.732,4.482,8.473,9.413C548.201,140.277,543.978,144.078,539.047,143.819z M539.945,126.744
							c-4.484-0.236-8.323,3.22-8.559,7.704c-0.236,4.484,3.22,8.323,7.704,8.559c4.484,0.236,8.323-3.22,8.559-7.704
							C547.884,130.82,544.428,126.98,539.945,126.744z"/>
					</g>
					<g>
						<path style="fill:#F2EDFD;" d="M560.577,144.951c-4.931-0.259-8.732-4.482-8.473-9.413c0.259-4.931,4.482-8.732,9.413-8.473
							c4.931,0.259,8.732,4.482,8.473,9.413C569.73,141.41,565.508,145.21,560.577,144.951z M561.474,127.877
							c-4.484-0.236-8.323,3.22-8.559,7.704c-0.236,4.484,3.22,8.323,7.704,8.559c4.484,0.236,8.323-3.22,8.559-7.704
							C569.414,131.952,565.958,128.112,561.474,127.877z"/>
					</g>
					<g>
						<path style="fill:#F2EDFD;" d="M569.209,133.936c-0.097-0.005-0.193-0.045-0.267-0.12c-0.158-0.16-0.156-0.417,0.003-0.575
							c0.117-0.116,2.911-2.825,6.836-1.966c0.219,0.048,0.358,0.264,0.31,0.484c-0.048,0.219-0.264,0.357-0.484,0.31
							c-3.5-0.766-6.065,1.725-6.091,1.75C569.431,133.902,569.319,133.941,569.209,133.936z"/>
					</g>
					<g>
						<path style="fill:#F2EDFD;" d="M531.689,131.796c-0.106-0.005-0.209-0.052-0.284-0.138c-0.044-0.049-3.069-3.415-7.084-2.301
							c-0.216,0.06-0.44-0.066-0.5-0.283c-0.06-0.216,0.067-0.44,0.283-0.5c4.524-1.255,7.776,2.394,7.913,2.55
							c0.148,0.169,0.13,0.425-0.039,0.573C531.895,131.769,531.791,131.802,531.689,131.796z"/>
					</g>
					<g>
						<path style="fill:#F2EDFD;" d="M548.098,134.506c-0.009,0-0.018-0.001-0.027-0.002c-0.223-0.026-0.382-0.228-0.356-0.451
							c0.083-0.708,0.763-2.021,2.74-1.917c1.976,0.104,2.516,1.48,2.525,2.193c0.003,0.224-0.177,0.408-0.401,0.411
							c-0.226,0.002-0.409-0.177-0.411-0.401c-0.004-0.13-0.088-1.304-1.755-1.392c-1.719-0.09-1.884,1.147-1.891,1.2
							C548.497,134.361,548.31,134.517,548.098,134.506z"/>
					</g>
				</g>
			</g>
			<polygon style="fill:#F7E6D4;" points="516.734,376.137 567.045,363.961 555.136,325.441 507.234,341.482 			"/>
			<polygon style="fill:#E38680;" points="490.776,239.404 502.116,290.256 520.882,345.378 537.846,340.031 521.066,276.197 
				513.041,233.635 			"/>
			<path style="fill:#BF3E3D;" d="M499.567,178.227c0,0,8.169,10.538,13.388,29.836c2.241,8.288,2.997,16.348,3.131,22.847
				c0.168,8.194-15.905,10.635-15.905,10.635c-8.973,1.283-17.585-1.535-18.702-10.531c-0.789-6.354-1.154-14.102-0.202-22.352
				C483.684,187.789,499.567,178.227,499.567,178.227z"/>
			<path style="fill:#E38680;" d="M537.846,340.031l-17.601,2.376l1.958,24.063l1.725,7.764c0.269,1.21,1.45,1.987,2.667,1.755
				c1.154-0.22,1.955-1.276,1.856-2.446l-0.65-7.668l0.796-0.084l1.938,8.439c0.283,1.234,1.458,2.051,2.713,1.887
				c1.333-0.174,2.278-1.386,2.123-2.72l-0.814-6.997l1.798,7.831c0.283,1.234,1.458,2.051,2.713,1.887
				c1.333-0.174,2.278-1.386,2.123-2.72l-1.027-8.834l0.057-0.006l1.724,8.28c0.237,1.137,1.355,1.863,2.49,1.618
				c0.962-0.208,1.649-1.06,1.649-2.044v-8.477L537.846,340.031z"/>
			<path style="fill:#BF3E3D;" d="M591.068,179.92c0,0-3.537,37.377,3.436,55.842c0,0,13.351-5.218,18.436-9.352
				c5.085-4.133,7.226-9.753,4.282-19.655C614.278,196.854,600.774,179.845,591.068,179.92z"/>
		</g>
		<g>
			<path style="fill:#ECB6A0;" d="M458.329,152.518c2.257,0.661,5.921,2.651,8.916,4.406l4.514-8.671l-0.007-0.004
				c0.23-0.483,0.744-1.467,1.426-2.724l0.001-0.002l0,0c2.284-4.209,6.469-11.503,8.332-13.519c2.42-2.618,3.773-0.018,2.768,1.791
				c-0.775,1.395-4.722,10.844-6.486,15.09l0.165,0.121c2.038-3.844,6.918-12.489,8.973-14.712c2.42-2.618,3.774-0.018,2.769,1.791
				c-0.868,1.562-5.711,13.218-7.015,16.365l0.126,0.092c2.232-4.138,6.612-11.81,8.531-13.886c2.42-2.618,3.774-0.018,2.768,1.791
				c-0.663,1.194-3.649,8.285-5.603,12.969c2.322-3.415,5.112-7.297,6.496-8.574c2.404-2.215,3.45,0.261,2.398,1.84
				c-0.72,1.081-4.191,7.781-6.307,11.896l-6.594,13.886l-0.014,12.349l-18.23-3.601l2.088-8.499l-4.169-8.961
				c-2.173-2.455-5.18-5.769-6.684-7.052C454.981,154.554,453.995,151.248,458.329,152.518z"/>
			<g>
				<path style="fill:#E48888;" d="M487.056,157.861c-0.071-0.01-0.14-0.037-0.201-0.083l-12.476-9.151
					c-0.201-0.147-0.245-0.43-0.097-0.631c0.147-0.201,0.429-0.246,0.631-0.097l12.476,9.151c0.201,0.147,0.245,0.43,0.097,0.631
					C487.383,157.821,487.216,157.884,487.056,157.861z"/>
			</g>
			<g>
				<path style="fill:#E48888;" d="M473.02,164.382c-0.197-0.029-0.358-0.186-0.383-0.394c-0.443-3.753-3.748-6.047-3.781-6.069
					c-0.206-0.14-0.259-0.421-0.119-0.627c0.14-0.206,0.42-0.26,0.626-0.12c0.15,0.102,3.678,2.539,4.17,6.71
					c0.029,0.247-0.148,0.472-0.396,0.501C473.098,164.389,473.058,164.388,473.02,164.382z"/>
			</g>
			<g>
				<g>
					<path style="fill:#DD504F;" d="M438.482,199.45L321,198.649c0,0,1.282-14.647,8.393-17.438
						c2.874-1.126,9.464-4.35,16.302-7.793c2.539-1.278,5.111-2.586,7.538-3.828c0.256-0.131,0.511-0.262,0.763-0.391
						c1.989-1.021,3.869-1.986,5.532-2.846c3.663-1.891,6.284-3.26,6.783-3.52c0.058-0.03,0.086-0.044,0.086-0.044l0.896,0.207
						c1.122,0.26,2.249,0.484,3.378,0.67c1.118,0.19,2.239,0.343,3.362,0.46c6.198,0.652,12.475,0.269,18.573-1.151
						c0.009-0.002,0.019-0.004,0.03-0.006c0,0,2.75,1.44,6.79,3.534c1.679,0.872,3.584,1.859,5.606,2.9
						c0.256,0.13,0.512,0.263,0.77,0.395c0.99,0.508,2.003,1.028,3.029,1.553c1.092,0.56,2.2,1.128,3.309,1.69
						c7.548,3.843,15.107,7.6,18.19,8.859C437.4,184.787,438.482,199.45,438.482,199.45z"/>
				</g>
			</g>
			<g>
				<g>
					<path style="fill:#A73034;" d="M405.801,169.797c-0.41,1.173-0.881,2.37-1.422,3.565c-2.137,4.719-4.922,8.474-8.282,11.164
						c-4.21,3.371-9.326,5.059-15.206,5.019c-12.286-0.084-19.819-7.335-23.976-13.4c-1.554-2.267-2.763-4.544-3.682-6.555
						c0.256-0.131,0.511-0.262,0.763-0.391c0.905,1.984,2.101,4.238,3.64,6.484c5.878,8.565,13.705,12.941,23.261,13.006
						c10.323,0.07,17.961-5.206,22.701-15.679c0.548-1.21,1.023-2.423,1.433-3.608C405.287,169.533,405.543,169.665,405.801,169.797
						z"/>
				</g>
			</g>
			<g>
				<path style="fill:#FCF6F0;" d="M399.425,166.502c-1.523,6.356-7.193,16.003-19.571,15.918
					c-13.587-0.093-18.618-11.122-20.327-16.066c3.663-1.891,6.284-3.26,6.783-3.52c0.058-0.03,0.086-0.044,0.086-0.044l0.896,0.207
					c1.122,0.26,2.249,0.484,3.378,0.67c1.118,0.19,2.239,0.343,3.362,0.46c6.198,0.652,12.475,0.269,18.573-1.151
					c0.009-0.002,0.019-0.004,0.03-0.006C392.635,162.968,395.385,164.408,399.425,166.502z"/>
			</g>
			<g>
				<g>
					<g>
						<g>
							<g>
								<g>
									<g>
										<path style="fill:#ECB6A0;" d="M393.212,165.964c0,0-2.354,7.227-12.941,7.154c-12.348-0.084-15.21-6.688-15.21-6.688
											c1.092-2.837,1.848-5.465,2.361-7.816h0.003c0.944-4.306,1.096-7.693,1.054-9.77l21.7-0.711
											c0.188,1.838,0.5,4.003,0.853,6.182C391.974,160.099,393.212,165.964,393.212,165.964z"/>
									</g>
								</g>
							</g>
						</g>
					</g>
					<g>
						<g>
							<g>
								<g>
									<g>
										<path style="fill:#3B2539;" d="M391.033,154.315c-3.377,2.314-10.749,5.744-23.608,4.3
											c0.944-4.306,1.096-7.693,1.054-9.77l21.7-0.711C390.368,149.971,390.679,152.136,391.033,154.315z"/>
									</g>
								</g>
							</g>
						</g>
					</g>
				</g>
				<g>
					<g>
						<g>
							<g>
								<g>
									<g>
										<g>
											<path style="fill:#ECB6A0;" d="M360.391,120.496c0,0-6.652-9.184-11.91-3.811c-5.259,5.373,4.684,24.278,13.85,20.237
												L360.391,120.496z"/>
										</g>
									</g>
								</g>
							</g>
						</g>
						<g>
							<g>
								<g>
									<g>
										<g>
											<path style="fill:#E48888;" d="M357.115,131.273c-0.228-0.002-0.425-0.171-0.456-0.403
												c-0.84-6.355-5.859-10.287-5.91-10.326c-0.203-0.156-0.241-0.447-0.084-0.65c0.156-0.203,0.447-0.241,0.65-0.084
												c0.219,0.169,5.375,4.208,6.263,10.939c0.034,0.254-0.145,0.487-0.399,0.521
												C357.158,131.272,357.137,131.273,357.115,131.273z"/>
										</g>
									</g>
								</g>
							</g>
						</g>
						<g>
							<g>
								<g>
									<g>
										<g>
											<path style="fill:#E48888;" d="M355.74,126.704c-0.148-0.001-0.294-0.074-0.383-0.207
												c-0.667-1.001-2.682-1.116-3.399-1.077c-0.258,0.017-0.475-0.181-0.489-0.438c-0.014-0.256,0.182-0.474,0.437-0.489
												c0.128-0.007,3.128-0.154,4.222,1.489c0.142,0.213,0.085,0.501-0.129,0.643
												C355.921,126.679,355.83,126.704,355.74,126.704z"/>
										</g>
									</g>
								</g>
							</g>
						</g>
					</g>
				</g>
				<g>
					<g>
						<g>
							<g>
								<g>
									<g>
										<g>
											<path style="fill:#ECB6A0;" d="M401.292,120.775c0,0,6.776-9.093,11.961-3.648c5.185,5.444-5.014,24.212-14.125,20.046
												L401.292,120.775z"/>
										</g>
									</g>
								</g>
							</g>
						</g>
						<g>
							<g>
								<g>
									<g>
										<g>
											<path style="fill:#E48888;" d="M404.42,131.596c-0.021,0-0.043-0.002-0.064-0.005c-0.254-0.037-0.429-0.272-0.392-0.526
												c0.98-6.719,6.191-10.687,6.412-10.853c0.205-0.154,0.495-0.112,0.649,0.093c0.153,0.205,0.112,0.495-0.093,0.649
												c-0.051,0.038-5.127,3.914-6.051,10.244C404.848,131.431,404.648,131.598,404.42,131.596z"/>
										</g>
									</g>
								</g>
							</g>
						</g>
						<g>
							<g>
								<g>
									<g>
										<g>
											<path style="fill:#E48888;" d="M405.857,127.046c-0.09-0.001-0.18-0.027-0.259-0.081
												c-0.211-0.145-0.265-0.434-0.12-0.645c1.117-1.628,4.115-1.439,4.243-1.431c0.255,0.018,0.448,0.239,0.43,0.494
												c-0.017,0.256-0.241,0.451-0.494,0.431c-0.721-0.048-2.736,0.042-3.414,1.031
												C406.153,126.976,406.006,127.047,405.857,127.046z"/>
										</g>
									</g>
								</g>
							</g>
						</g>
					</g>
				</g>
				<g>
					<g>
						<g>
							<g>
								<g>
									<path style="fill:#ECB6A0;" d="M385.322,92.327c-19.135-0.139-31.086,9.695-29.105,32.469
										c1.182,13.594,8.055,30.448,24.171,30.938c16.796,0.51,23.661-17.735,26.155-31.597
										c2.282-12.687-4.082-26.809-16.303-30.908C389.393,92.946,386.397,92.335,385.322,92.327z"/>
								</g>
								<g>
									<path style="fill:#4F1E4A;" d="M356.025,120.641c0,0-2.079-21.59-2.111-26.372c-0.079-11.628,11.697-18.071,28.914-17.916
										c13.885,0.125,15.555,6.216,16.64,11.145c0,0,10.264,0.333,11.781,7.502c1.517,7.169-5.146,28.74-5.146,28.74
										s-2.151-4.991-3.668-12.16s-3.524-11.563-7.998-11.684s-10.067,0.065-16.132,3.603c-6.064,3.538-12.107,3.944-16.336,0.784
										C361.97,104.284,360.76,115.081,356.025,120.641z"/>
								</g>
							</g>
						</g>
					</g>
				</g>
				<g style="opacity:0.5;">
					<g>
						<path style="fill:#E48888;" d="M372.625,129.758c-0.011,1.623-3.017,2.919-6.714,2.894c-3.697-0.025-6.685-1.362-6.674-2.985
							c0.011-1.623,3.017-2.919,6.714-2.893C369.648,126.799,372.636,128.135,372.625,129.758z"/>
					</g>
				</g>
				<g style="opacity:0.5;">
					<g>
						<path style="fill:#E48888;" d="M404.118,129.973c-0.011,1.623-3.017,2.919-6.714,2.894c-3.697-0.025-6.685-1.362-6.674-2.985
							c0.011-1.623,3.017-2.919,6.714-2.894C401.141,127.013,404.129,128.35,404.118,129.973z"/>
					</g>
				</g>
				<g>
					<path style="fill:#4F1E4A;" d="M406.695,120.987c0,0-0.217,10.503-3.436,23.694c-5.161,21.145-22.355,18.206-22.355,18.206
						s-16.896,2.706-21.769-18.507c-3.038-13.234-3.112-23.739-3.112-23.739l2.78-4.572c0,0,1.801,18.26,8.765,21.469
						c0,0,3.136-4.7,13.51-0.217c10.434-4.341,13.842,0.403,13.842,0.403c7.006-3.114,9.059-21.348,9.059-21.348L406.695,120.987z"
						/>
				</g>
				<g>
					<g>
						<path style="fill:#E48888;" d="M381.867,135.532c-0.798-0.005-1.672-0.22-2.633-0.645c-0.27-0.119-0.428-0.403-0.388-0.695
							l1.413-10.305c0.05-0.362,0.385-0.615,0.746-0.566c0.362,0.05,0.616,0.383,0.566,0.746l-1.344,9.797
							c1.314,0.492,2.331,0.456,3.175-0.104c0.305-0.202,0.715-0.119,0.918,0.185c0.202,0.304,0.119,0.715-0.185,0.918
							C383.453,135.314,382.701,135.537,381.867,135.532z"/>
					</g>
				</g>
				<g>
					<g>
						<path style="fill:#684868;" d="M380.586,143.536c-3.791-0.026-6.658-1.611-6.707-1.638c-0.318-0.18-0.429-0.584-0.249-0.902
							c0.181-0.318,0.584-0.429,0.902-0.249c0.32,0.18,7.62,4.178,14.002-1.645c0.27-0.246,0.688-0.227,0.935,0.043
							c0.246,0.27,0.227,0.689-0.043,0.935C386.467,142.779,383.291,143.555,380.586,143.536z"/>
					</g>
				</g>
				<g>
					<g>
						<path style="fill:#684868;" d="M381.633,147.328c-1.498-0.01-2.695-0.384-2.779-0.411c-0.348-0.111-0.54-0.484-0.429-0.832
							c0.111-0.348,0.483-0.539,0.831-0.429l0,0c0.029,0.009,2.959,0.915,5.031-0.238c0.319-0.178,0.722-0.063,0.9,0.257
							c0.178,0.32,0.063,0.723-0.257,0.9C383.871,147.165,382.679,147.335,381.633,147.328z"/>
					</g>
				</g>
				<g>
					<g>
						<path style="fill:#3B2539;" d="M367.858,117.824c1.43-0.756,3.517-1.687,5.542-1.968c1.088-0.151,1.778-1.239,1.415-2.276
							l-0.074-0.209c-0.262-0.749-1.001-1.223-1.79-1.144c-1.806,0.18-5.009,0.789-7.109,2.855
							c-0.455,0.447-0.616,1.115-0.429,1.725l0,0C365.73,117.837,366.905,118.328,367.858,117.824z"/>
					</g>
				</g>
				<g>
					<g>
						<path style="fill:#3B2539;" d="M395.249,118.011c-1.42-0.775-3.494-1.735-5.514-2.044c-1.086-0.166-1.761-1.264-1.384-2.295
							l0.076-0.208c0.273-0.745,1.018-1.209,1.806-1.119c1.804,0.204,4.998,0.858,7.07,2.951c0.449,0.453,0.601,1.124,0.405,1.731
							l0,0C397.377,118.053,396.195,118.528,395.249,118.011z"/>
					</g>
				</g>
				<g>
					<g>
						<g>
							<g>
								<g>
									<g>
										<g>
											<path style="fill:#3B2539;" d="M373.14,122.915c0.019,1.794-0.652,3.254-1.499,3.263
												c-0.847,0.009-1.549-1.437-1.568-3.231c-0.019-1.793,0.652-3.254,1.499-3.263
												C372.419,119.676,373.12,121.122,373.14,122.915z"/>
										</g>
									</g>
								</g>
							</g>
						</g>
					</g>
					<g>
						<g>
							<g>
								<g>
									<g>
										<g>
											<path style="fill:#3B2539;" d="M389.166,123.025c-0.043,1.793,0.608,3.263,1.454,3.284
												c0.847,0.02,1.568-1.416,1.612-3.209c0.043-1.793-0.608-3.263-1.454-3.284
												C389.931,119.795,389.209,121.232,389.166,123.025z"/>
										</g>
									</g>
								</g>
							</g>
						</g>
					</g>
				</g>
			</g>
			<path style="fill:#DD504F;" d="M321,198.649l5.335,53.812l3.498,80.206h99.551l3.211-83.237l5.887-49.979
				C438.482,199.45,335.181,190.274,321,198.649z"/>
			<polygon style="fill:#3B2539;" points="329.832,332.667 324.803,423.65 378.394,423.65 381.833,365.449 388.245,364.646 
				393.212,423.65 441.961,423.65 429.852,320.519 329.165,317.366 			"/>
			<path style="fill:#ECB6A0;" d="M359.616,351.669l-2.736-6.11c-0.51-1.14-1.393-2.072-2.504-2.644l-7.117-3.666l-6.662-4.544
				l-6.905-5.052l-3.705-4.21l-10.879,14.194l0.858,0.795c0,0,0,0,1.937,3.705c1.937,3.705,6.231,7.663,6.231,7.663l4.811,3.529l0,0
				l3.729,3.041l2.84,3.581c0.847,1.068,2.367,1.314,3.508,0.569l0,0c0.485-0.317,0.664-0.941,0.422-1.467l-2.861-6.203l2.372,1.75
				l3.303,4.289c0.768,0.997,2.179,1.227,3.223,0.524l0,0c0.705-0.474,0.967-1.388,0.619-2.164l-2.703-6.037l1.536,1.099
				l2.962,3.847c0.96,1.246,2.723,1.533,4.028,0.655l0,0c0.437-0.294,0.599-0.861,0.384-1.342l-3.712-8.287l3.177,4.126
				c0.768,0.997,2.179,1.227,3.223,0.524l0,0C359.702,353.358,359.964,352.445,359.616,351.669z M352.331,348.943l0.14,0.077
				l0.023,0.03L352.331,348.943z"/>
			<path style="fill:#DD504F;" d="M313.229,291.856l-6.433-8.286l26.247-64.102l-3.651-38.257c0,0-19.227,1.727-29.465,31.7
				c-10.239,29.972-22.626,69.311-22.626,69.311c3.132,34.654,41.807,61.818,41.807,61.818l14.47-17.662L313.229,291.856z"/>
			<path style="fill:#DD504F;" d="M488.904,181.211l-26.092-1.838c0,0-0.673,24.204-2.409,41.299
				c-6.455-11.99-14.847-22.55-17.127-27.296c-5.887-12.256-24.035-16.751-24.035-16.751s1.021,33.477,9.049,52.745
				c4.65,11.159,13.474,25.968,20.077,36.455c10.454,16.603,36.125,12.477,40.29-6.696c0.09-0.413,0.172-0.832,0.247-1.259
				C492.517,237.397,488.904,181.211,488.904,181.211z"/>
		</g>
		<g>
			<path style="fill:#965450;" d="M295.332,222.742c0,0,20.59,40.653,28.74,58.65l-19.355,15.62l-34.636-50.935L295.332,222.742z"/>
			<path style="fill:#965450;" d="M310.489,285.297l-30.561,47.37l12.564,15.96c0,0,34.976-32.259,37.013-43.804
				c2.037-11.545-6.638-26.038-6.638-26.038L310.489,285.297z"/>
			<path style="fill:#965450;" d="M304.145,369.606l3.174-0.711c0.943-0.211,1.521-1.163,1.273-2.097l-0.07-0.265
				c-0.344-1.299-1.493-2.222-2.835-2.279l-6.428-0.272c0,0-0.734-22.875-2.936-24.71c-0.074-0.062-0.151-0.088-0.228-0.091
				l-16.245-6.514l-1.876,26.911l0.035,0.015h-0.035c0,0,3.058,11.132,3.914,12.722c0.367,0.682,3.144,0.913,6.338,0.956
				c0.101,0.26,0.194,0.485,0.267,0.62c0.856,1.59,14.801,0.734,16.636,0.734C306.724,374.624,307.297,371.035,304.145,369.606z"/>
			<path style="fill:#76413B;" d="M143.953,223.694l-19.15,55.448l23.92,9.099c0,0,28.544-45.033,29.126-50.962
				c0.582-5.929-6.717-12.839-6.717-12.839L143.953,223.694z"/>
			<g>
				<path style="fill:#352C38;" d="M186.621,147.907c0,0-6.658-0.985-7.228,4.667c-0.57,5.652,3.401,6.587,3.401,6.587
					s-6.296-6.135-10.091-1.227c-3.795,4.908,3.28,8.303,3.28,8.303s-7.821-3.585-8.911,1.616c-1.09,5.202,5.205,7.921,5.205,7.921
					s-6.588-0.014-6.136,2.881c0.452,2.895,6.588,0.014,6.588,0.014s-9.101,2.362-7.121,9.539c1.98,7.177,8.965,2.527,8.965,2.527
					s-5.373,3.314-3.254,12.432c2.119,9.119,42.281-12.554,42.281-12.554l-1.069-25.052L186.621,147.907z"/>
				<path style="fill:#352C38;" d="M234.523,144.464c0,0,6.449-1.927,7.821,3.585c1.372,5.513-2.424,7.005-2.424,7.005
					s5.354-6.972,9.812-2.657c4.458,4.315-2.059,8.687-2.059,8.687s7.228-4.667,9.05,0.326c1.823,4.992-4.018,8.584-4.018,8.584
					s6.518-0.956,6.485,1.974c-0.033,2.93-6.519,0.956-6.519,0.956s9.345,1.036,8.412,8.422c-0.933,7.386-8.511,3.783-8.511,3.783
					s5.792,2.512,4.999,11.839c-0.793,9.328-43.641-6.378-43.641-6.378l-2.525-24.948L234.523,144.464z"/>
				<path style="fill:#352C38;" d="M186.621,147.907c0,0-6.658-0.985-7.228,4.667c-0.57,5.652,3.401,6.587,3.401,6.587
					s-6.296-6.135-10.091-1.227c-3.795,4.908,3.28,8.303,3.28,8.303s-7.821-3.585-8.911,1.616c-1.09,5.202,5.205,7.921,5.205,7.921
					s-6.588-0.014-6.136,2.881c0.452,2.895,6.588,0.014,6.588,0.014s-9.101,2.362-7.121,9.539c1.98,7.177,8.965,2.527,8.965,2.527
					s-5.373,3.314-3.254,12.432c2.119,9.119,42.281-12.554,42.281-12.554l-1.069-25.052L186.621,147.907z"/>
				<path style="fill:#352C38;" d="M234.523,144.464c0,0,6.449-1.927,7.821,3.585c1.372,5.513-2.424,7.005-2.424,7.005
					s5.354-6.972,9.812-2.657c4.458,4.315-2.059,8.687-2.059,8.687s7.228-4.667,9.05,0.326c1.823,4.992-4.018,8.584-4.018,8.584
					s6.518-0.956,6.485,1.974c-0.033,2.93-6.519,0.956-6.519,0.956s9.345,1.036,8.412,8.422c-0.933,7.386-8.511,3.783-8.511,3.783
					s5.792,2.512,4.999,11.839c-0.793,9.328-43.641-6.378-43.641-6.378l-2.525-24.948L234.523,144.464z"/>
			</g>
			<g>
				<path style="fill:#965450;" d="M228.546,184.664c-7.109-3.24-6.54-21.41-6.54-21.41l-10.197,1.396l-0.047-0.658l-1.073,0.408
					l-1.12-0.25l0.047,0.658l-10.292,0.076c0,0,3.162,17.902-3.411,22.125c-6.572,4.223-46.86,8.994-39.512,50.346l58.128-4.178
					l2.193-0.158l58.128-4.178C276.21,186.864,235.655,187.904,228.546,184.664z"/>
				<path style="fill:#76413B;" d="M199.118,182.102c8.096-1.808,16.182-3.654,24.261-5.538c-1.597-6.136-1.373-13.31-1.373-13.31
					l-10.197,1.396l-0.047-0.658l-1.073,0.408l-1.12-0.25l0.047,0.658l-10.292,0.076
					C199.324,164.884,201.158,175.286,199.118,182.102z"/>
			</g>
			<g>
				<g>
					<path style="fill:#76413B;" d="M188.738,139.108c-2.465-6.108-7.133-4.317-7.57-4.134c-0.465,0.088-5.345,1.175-4.025,7.628
						c1.328,6.491,5.386,9.77,8.876,8.47C189.647,150.227,191.217,145.252,188.738,139.108z"/>
					<path style="fill:#76413B;" d="M228.982,136.215c1.566-6.398,6.443-5.293,6.9-5.174c0.472,0.021,5.458,0.399,5.074,6.974
						c-0.386,6.615-3.933,10.439-7.574,9.652C229.673,147.35,227.407,142.651,228.982,136.215z"/>
					<path style="fill:#965450;" d="M183.167,129.987c0.527-27.592,21.478-27.554,23.458-27.489
						c1.951-0.348,22.68-3.381,27.148,23.852c4.495,27.395-6.494,46.288-22.098,46.414
						C196.214,174.87,182.637,157.743,183.167,129.987z"/>
				</g>
				<g>
					<g>
						<path style="fill:#76413B;" d="M212.991,140.808c0.853,1.195,1.417,2.473,1.894,3.777c0.462,1.307,0.821,2.644,1.029,4.024
							l0.062,0.413l-0.191,0.196c-0.531,0.545-1.082,1.073-1.646,1.591c-0.576,0.507-1.147,1.019-1.781,1.477
							c0.338-0.706,0.739-1.359,1.136-2.017c0.409-0.647,0.83-1.284,1.271-1.903l-0.129,0.608c-0.553-1.281-0.956-2.606-1.255-3.959
							C213.096,143.657,212.899,142.274,212.991,140.808z"/>
					</g>
					<path style="fill:#FFFFFF;" d="M221.193,156.601c-4.615,5.18-13.038,5.516-19.713,1.676"/>
					<g>
						<path style="fill:#352C38;" d="M228.382,130.359c-1.288-0.491-2.436-0.945-3.557-1.286c-1.114-0.345-2.175-0.554-3.189-0.57
							c-1.012-0.02-2.009,0.135-3.036,0.577c-0.542,0.152-1.034,0.479-1.601,0.731c-0.555,0.283-1.065,0.654-1.727,0.943
							c0.187-0.655,0.458-1.297,0.81-1.9c0.426-0.537,0.805-1.17,1.413-1.587c1.092-0.965,2.665-1.512,4.187-1.464
							c1.53,0.027,2.962,0.577,4.106,1.385C226.921,128.017,227.871,129.054,228.382,130.359z"/>
					</g>
					<g>
						<path style="fill:#352C38;" d="M202.423,132.225c-1.288-0.491-2.437-0.945-3.557-1.286c-1.114-0.345-2.176-0.554-3.189-0.57
							c-1.012-0.02-2.009,0.135-3.036,0.577c-0.543,0.152-1.034,0.479-1.601,0.731c-0.555,0.283-1.065,0.655-1.727,0.943
							c0.187-0.655,0.458-1.297,0.81-1.9c0.426-0.537,0.805-1.17,1.413-1.587c1.092-0.965,2.665-1.512,4.187-1.464
							c1.53,0.027,2.962,0.577,4.106,1.385C200.962,129.883,201.911,130.919,202.423,132.225z"/>
					</g>
					<g>
						<path style="fill:#352C38;" d="M202.313,142.217c-0.465-1.127-1.032-2.189-1.825-2.946c-0.784-0.757-1.775-1.139-2.84-1.042
							c-0.54,0.007-1.049,0.133-1.51,0.331c-0.454,0.213-0.827,0.551-1.137,0.976c-0.605,0.874-0.861,2.064-0.967,3.276
							c-0.38-1.161-0.438-2.508,0.161-3.745c0.292-0.619,0.811-1.146,1.419-1.51c0.628-0.324,1.31-0.488,1.976-0.521
							c1.347-0.12,2.817,0.535,3.593,1.619C201.999,139.711,202.328,140.992,202.313,142.217z"/>
					</g>
					<g>
						<path style="fill:#352C38;" d="M225.614,140.165c-0.465-1.127-1.032-2.189-1.825-2.946c-0.784-0.757-1.775-1.139-2.84-1.042
							c-0.54,0.007-1.049,0.133-1.51,0.331c-0.454,0.213-0.826,0.551-1.137,0.976c-0.605,0.874-0.861,2.064-0.967,3.276
							c-0.38-1.161-0.438-2.508,0.161-3.744c0.292-0.619,0.811-1.146,1.419-1.51c0.628-0.324,1.31-0.488,1.976-0.521
							c1.347-0.12,2.817,0.535,3.593,1.619C225.3,137.658,225.629,138.939,225.614,140.165z"/>
					</g>
				</g>
				<g>
					<path style="fill:#352C38;" d="M207.432,102.44c0,0,2.495,16.711-22.484,25.582c0,0,1.339,8.443-0.27,16.609
						c0,0-9.107-11.3-6.236-25.657C181.314,104.617,200.18,91.926,207.432,102.44z"/>
					<path style="fill:#352C38;" d="M205.425,102.584c0,0,0.727,16.838,26.718,22.046c0,0-0.446,10.767,2.314,18.619
						c0,0,7.726-14.706,2.831-28.504C232.392,100.946,211.099,91.141,205.425,102.584z"/>
					<path style="fill:#2A242D;" d="M188.711,126.53c-3.905-2.324-7.454-5.425-9.937-8.95c-0.126,0.463-0.238,0.927-0.332,1.394
						c-2.872,14.357,6.236,25.657,6.236,25.657c1.609-8.167,0.27-16.609,0.27-16.609
						C186.285,127.547,187.527,127.046,188.711,126.53z"/>
				</g>
			</g>
			<path style="fill:#FC6A5A;" d="M283.775,327.31l-16.633-52.672l9.412-45.919c1.452-42.587-40.371-41.483-47.698-44.761
				c-2.822-1.262-4.463-4.774-5.419-8.613c-3.724,1.117-7.789,1.878-12.074,2.186c-4.199,0.302-8.254,0.146-12.034-0.4
				c-0.402,3.917-1.526,7.601-4.127,9.247c-6.783,4.292-48.333,9.18-40.806,51.122l17.105,39.911c0,0-12.013,27.722-12.013,49.899
				H283.775z"/>
			<polygon style="fill:#3B2539;" points="159.488,327.31 165.327,423.65 283.775,423.65 283.775,327.31 			"/>
			<path style="fill:#FC6A5A;" d="M176.918,193.579c0,0-15,4.475-26.113,15.714c-11.113,11.24-15.789,28.062-15.789,28.062
				l32.862,15.105L176.918,193.579z"/>
			<path style="fill:#FC6A5A;" d="M252.423,190.006c0,0,15.448,2.523,27.906,12.251c12.458,9.729,19.243,25.816,19.243,25.816
				l-30.665,19.177L252.423,190.006z"/>
			<path style="fill:#965450;" d="M149.516,272.134l-34.871-67.412l-19.149,5.472c0,0,18.517,64.875,23.214,74.007
				C127.762,301.797,159.184,294.944,149.516,272.134z"/>
			<path style="fill:#965450;" d="M119.559,177.911c-2.471,1.493-6.196,5.005-9.199,8.029l-8.08-8.876l0.007-0.006
				c-0.425-0.501-1.344-1.508-2.548-2.786l-0.002-0.002l0,0c-4.033-4.279-11.29-11.623-14.134-13.431
				c-3.694-2.348-4.485,1.163-2.724,2.995c1.359,1.413,9.009,11.389,12.436,15.876l-0.159,0.195
				c-3.626-3.923-12.132-12.652-15.269-14.647c-3.694-2.349-4.485,1.163-2.724,2.995c1.521,1.582,10.928,13.897,13.464,17.223
				l-0.121,0.149c-3.948-4.211-11.556-11.943-14.485-13.805c-3.694-2.349-4.485,1.163-2.724,2.995
				c1.162,1.209,6.933,8.689,10.721,13.635c-3.828-3.325-8.358-7.057-10.403-8.137c-3.548-1.875-4.013,1.392-2.269,2.937
				c1.194,1.058,7.418,7.921,11.221,12.141L94.752,209.8l3.973,9.668l18.919-7.776l-2.999-6.971l1.498-11.642
				c1.809-3.597,4.338-8.474,5.719-10.469C124.171,179.277,124.304,175.043,119.559,177.911z"/>
			<g>
				<path style="fill:#76413B;" d="M87.137,193.27c0.081-0.034,0.154-0.088,0.213-0.161l11.937-14.778
					c0.193-0.238,0.156-0.587-0.083-0.779c-0.238-0.193-0.586-0.157-0.779,0.083l-11.937,14.778
					c-0.193,0.238-0.155,0.587,0.083,0.779C86.736,193.325,86.954,193.348,87.137,193.27z"/>
			</g>
			<g>
				<path style="fill:#76413B;" d="M105.845,196.605c0.225-0.096,0.367-0.333,0.331-0.588c-0.652-4.594,2.55-8.354,2.583-8.391
					c0.2-0.231,0.175-0.581-0.056-0.781c-0.231-0.201-0.58-0.177-0.781,0.054c-0.146,0.168-3.569,4.168-2.844,9.274
					c0.043,0.303,0.323,0.513,0.627,0.47C105.754,196.637,105.801,196.623,105.845,196.605z"/>
			</g>
		</g>
	</g>
</g>
</svg>
